<svg data-v-0dd9719b="" version="1.0" xmlns="http://www.w3.org/2000/svg" xmlns:xlink="http://www.w3.org/1999/xlink" width="100%" height="100%" viewBox="0 0 340.000000 250.000000" preserveAspectRatio="xMidYMid meet" color-interpolation-filters="sRGB" style="margin: auto;"> <rect data-v-0dd9719b="" x="0" y="0" width="100%" height="100%" fill="#ffffff" fill-opacity="1" class="background"></rect> <rect data-v-0dd9719b="" x="0" y="0" width="100%" height="100%" fill="url(#watermark)" fill-opacity="1" class="watermarklayer"></rect> <g data-v-0dd9719b="" class="iconmbgsvg" transform="translate(52.1300048828125,60)"><g fill="#333333" hollow-target="textRect"><g transform="translate(52.8699951171875,0)" mask="url(#cc36898a-b95d-478a-b454-bb739ea65687)"><g><rect fill="#333333" fill-opacity="0" stroke-width="2" x="0" y="0" width="130" height="130" class="image-rect"></rect> <svg x="0" y="0" width="130" height="130" filtersec="colorsb2345118559" class="image-svg-svg primary" style="overflow: visible;"><svg fill="#000000" xmlns="http://www.w3.org/2000/svg" xmlns:xlink="http://www.w3.org/1999/xlink" version="1.1" x="0px" y="0px" viewBox="11.361000061035156 11.361000061035156 77.27799987792969 77.27799987792969" enable-background="new 0 0 100 100" xml:space="preserve"><path d="M50,11.361L50,11.361C28.66,11.361,11.361,28.66,11.361,50v0c0,21.34,17.299,38.639,38.639,38.639h0  c21.34,0,38.639-17.299,38.639-38.639v0C88.639,28.66,71.34,11.361,50,11.361z M50,82.279c-17.799,0-32.279-14.48-32.279-32.279  c0-17.799,14.48-32.279,32.279-32.279c17.799,0,32.279,14.48,32.279,32.279C82.279,67.799,67.799,82.279,50,82.279z"></path></svg></svg> <!----></g><rect v-gra="id" width="142" height="142" transform="translate(-6, -6)" style="pointer-events:none;" fill="url(#cBkGIEvzk7Ox5BcDzLEy8)"></rect></g> <g transform="translate(0,50.65999889373779)"><g data-gra="path-name" fill-rule="" class="tp-name"><g transform="scale(1)"><g><path d="M2.55-12.41L2.55-28.34 8.54-28.34 8.54-12.41Q8.67-9.39 8.8-8.41L8.8-8.41Q9.09-6.46 10.67-5.76 12.24-5.06 16.19-5.06L16.19-5.06 21.97-5.06 21.97 0 15.55 0Q11 0 8.97-0.51L8.97-0.51Q4.29-1.87 3.02-6.46L3.02-6.46Q2.55-8.24 2.55-12.41L2.55-12.41ZM29.79 0L22.73 0 34.46-28.34 41.39-28.34 53.11 0 46.06 0 43.3-6.54 32.55-6.54 29.79 0ZM41.98-11.6L37.94-21.5 33.91-11.6 41.98-11.6ZM71.85 0L56.17 0 56.17-28.34 72.19-28.34Q75.97-28.34 77.67-27.45L77.67-27.45Q79.67-26.47 80.69-24.18L80.69-24.18Q81.41-22.6 81.41-20.91L81.41-20.91Q81.41-18.7 80.24-16.78 79.07-14.87 77.29-14.15L77.29-14.15Q81.41-12.28 81.41-7.48L81.41-7.48Q81.41-4.72 80.09-2.85L80.09-2.85Q78.95-1.23 77.16-0.62 75.38 0 71.85 0L71.85 0ZM62.21-23.28L62.21-16.7 70.41-16.7Q71.72-16.7 72.3-16.83 72.87-16.95 73.42-17.38L73.42-17.38Q74.74-18.4 74.74-20.18L74.74-20.18Q74.74-21.88 73.51-22.69L73.51-22.69Q72.62-23.28 70.53-23.28L70.53-23.28 62.21-23.28ZM62.21-11.64L62.21-5.06 70.41-5.06Q71.72-5.06 72.32-5.18 72.91-5.31 73.42-5.74L73.42-5.74Q74.74-6.76 74.74-8.54L74.74-8.54Q74.74-10.24 73.51-11.05L73.51-11.05Q72.62-11.64 70.53-11.64L70.53-11.64 62.21-11.64ZM98.28-28.51L98.28-28.51Q102.53-28.51 105.76-27.07L105.76-27.07Q109.54-25.32 111.07-21.25L111.07-21.25Q112.26-18.06 112.26-13.77L112.26-13.77Q112.26-9.43 110.81-6.25L110.81-6.25Q108.99-2.46 105.21-0.93L105.21-0.93Q102.4 0.17 98.75 0.17L98.75 0.17Q93.95 0.17 90.42-1.61L90.42-1.61Q87.45-3.1 85.87-6.29 84.3-9.48 84.3-14.02L84.3-14.02Q84.3-22.14 88.34-25.58L88.34-25.58Q91.74-28.47 98.28-28.51ZM98.32-23.75L98.32-23.75Q94.16-23.75 92.37-21.03L92.37-21.03Q90.93-18.91 90.93-14.19L90.93-14.19Q90.93-9.22 92.71-6.88L92.71-6.88Q94.5-4.59 98.37-4.59L98.37-4.59Q102.1-4.59 103.87-6.93 105.63-9.26 105.63-14.15L105.63-14.15Q105.63-18.61 104.19-20.95L104.19-20.95Q102.53-23.71 98.32-23.75ZM122.16-16.74L139.07-16.74 139.07-11.68 122.16-11.68 122.16 0 116.17 0 116.17-14.79Q116.21-21.16 117.36-23.16L117.36-23.16Q118.8-25.96 121.54-27.15 124.28-28.34 129.26-28.34L129.26-28.34 139.07-28.34 139.07-23.28 130.02-23.28Q125.81-23.2 124.62-22.6L124.62-22.6Q122.24-21.63 122.16-18.27L122.16-18.27 122.16-16.74ZM143.19-12.41L143.19-28.34 149.18-28.34 149.18-12.41Q149.31-9.39 149.44-8.41L149.44-8.41Q149.74-6.46 151.31-5.76 152.88-5.06 156.83-5.06L156.83-5.06 162.61-5.06 162.61 0 156.19 0Q151.65 0 149.61-0.51L149.61-0.51Q144.93-1.87 143.66-6.46L143.66-6.46Q143.19-8.24 143.19-12.41L143.19-12.41ZM178.59-28.51L178.59-28.51Q182.84-28.51 186.07-27.07L186.07-27.07Q189.85-25.32 191.38-21.25L191.38-21.25Q192.57-18.06 192.57-13.77L192.57-13.77Q192.57-9.43 191.12-6.25L191.12-6.25Q189.29-2.46 185.51-0.93L185.51-0.93Q182.71 0.17 179.05 0.17L179.05 0.17Q174.25 0.17 170.73-1.61L170.73-1.61Q167.75-3.1 166.18-6.29 164.61-9.48 164.61-14.02L164.61-14.02Q164.61-22.14 168.64-25.58L168.64-25.58Q172.04-28.47 178.59-28.51ZM178.63-23.75L178.63-23.75Q174.47-23.75 172.68-21.03L172.68-21.03Q171.24-18.91 171.24-14.19L171.24-14.19Q171.24-9.22 173.02-6.88L173.02-6.88Q174.81-4.59 178.67-4.59L178.67-4.59Q182.41-4.59 184.17-6.93 185.94-9.26 185.94-14.15L185.94-14.15Q185.94-18.61 184.49-20.95L184.49-20.95Q182.84-23.71 178.63-23.75ZM194.48-28.34L200.72-28.34 207.1-7.01 213.05-28.34 219.76-28.34 225.71-7.01 232.08-28.34 238.29-28.34 229.15 0 222.27 0 216.4-20.44 210.54 0 203.66 0 194.48-28.34Z" transform="translate(-2.549999952316284, 28.510000228881836)"></path></g> <!----> <!----> <!----> <!----> <!----> <!----> <!----></g></g> <!----></g></g></g><mask id="0380fe4c-e0d5-46d8-8bb2-8629ab2dfadc"><g fill="white"><g><rect fill-opacity="1" stroke-width="2" x="0" y="0" width="130" height="130" class="image-rect"></rect> <svg x="0" y="0" width="130" height="130" filtersec="colorsb2345118559" class="image-svg-svg primary" style="overflow: visible;"><svg xmlns="http://www.w3.org/2000/svg" xmlns:xlink="http://www.w3.org/1999/xlink" version="1.1" x="0px" y="0px" viewBox="11.361000061035156 11.361000061035156 77.27799987792969 77.27799987792969" enable-background="new 0 0 100 100" xml:space="preserve"><path d="M50,11.361L50,11.361C28.66,11.361,11.361,28.66,11.361,50v0c0,21.34,17.299,38.639,38.639,38.639h0  c21.34,0,38.639-17.299,38.639-38.639v0C88.639,28.66,71.34,11.361,50,11.361z M50,82.279c-17.799,0-32.279-14.48-32.279-32.279  c0-17.799,14.48-32.279,32.279-32.279c17.799,0,32.279,14.48,32.279,32.279C82.279,67.799,67.799,82.279,50,82.279z"></path></svg></svg> </g></g> <g transform="translate(-52.8699951171875,50.65999889373779)"><rect fill="black" fill-opacity="1" x="-3.5" y="-3.5" width="242.739990234375" height="35.680002212524414"></rect><rect fill="black" fill-opacity="1" x="-3.5" y="-3.5"></rect></g><g transform="translate(-52.8699951171875,50.65999889373779)" fill="black"><g data-gra="path-name" fill-rule="" class="tp-name"><g transform="scale(1)"><g><path d="M2.55-12.41L2.55-28.34 8.54-28.34 8.54-12.41Q8.67-9.39 8.8-8.41L8.8-8.41Q9.09-6.46 10.67-5.76 12.24-5.06 16.19-5.06L16.19-5.06 21.97-5.06 21.97 0 15.55 0Q11 0 8.97-0.51L8.97-0.51Q4.29-1.87 3.02-6.46L3.02-6.46Q2.55-8.24 2.55-12.41L2.55-12.41ZM29.79 0L22.73 0 34.46-28.34 41.39-28.34 53.11 0 46.06 0 43.3-6.54 32.55-6.54 29.79 0ZM41.98-11.6L37.94-21.5 33.91-11.6 41.98-11.6ZM71.85 0L56.17 0 56.17-28.34 72.19-28.34Q75.97-28.34 77.67-27.45L77.67-27.45Q79.67-26.47 80.69-24.18L80.69-24.18Q81.41-22.6 81.41-20.91L81.41-20.91Q81.41-18.7 80.24-16.78 79.07-14.87 77.29-14.15L77.29-14.15Q81.41-12.28 81.41-7.48L81.41-7.48Q81.41-4.72 80.09-2.85L80.09-2.85Q78.95-1.23 77.16-0.62 75.38 0 71.85 0L71.85 0ZM62.21-23.28L62.21-16.7 70.41-16.7Q71.72-16.7 72.3-16.83 72.87-16.95 73.42-17.38L73.42-17.38Q74.74-18.4 74.74-20.18L74.74-20.18Q74.74-21.88 73.51-22.69L73.51-22.69Q72.62-23.28 70.53-23.28L70.53-23.28 62.21-23.28ZM62.21-11.64L62.21-5.06 70.41-5.06Q71.72-5.06 72.32-5.18 72.91-5.31 73.42-5.74L73.42-5.74Q74.74-6.76 74.74-8.54L74.74-8.54Q74.74-10.24 73.51-11.05L73.51-11.05Q72.62-11.64 70.53-11.64L70.53-11.64 62.21-11.64ZM98.28-28.51L98.28-28.51Q102.53-28.51 105.76-27.07L105.76-27.07Q109.54-25.32 111.07-21.25L111.07-21.25Q112.26-18.06 112.26-13.77L112.26-13.77Q112.26-9.43 110.81-6.25L110.81-6.25Q108.99-2.46 105.21-0.93L105.21-0.93Q102.4 0.17 98.75 0.17L98.75 0.17Q93.95 0.17 90.42-1.61L90.42-1.61Q87.45-3.1 85.87-6.29 84.3-9.48 84.3-14.02L84.3-14.02Q84.3-22.14 88.34-25.58L88.34-25.58Q91.74-28.47 98.28-28.51ZM98.32-23.75L98.32-23.75Q94.16-23.75 92.37-21.03L92.37-21.03Q90.93-18.91 90.93-14.19L90.93-14.19Q90.93-9.22 92.71-6.88L92.71-6.88Q94.5-4.59 98.37-4.59L98.37-4.59Q102.1-4.59 103.87-6.93 105.63-9.26 105.63-14.15L105.63-14.15Q105.63-18.61 104.19-20.95L104.19-20.95Q102.53-23.71 98.32-23.75ZM122.16-16.74L139.07-16.74 139.07-11.68 122.16-11.68 122.16 0 116.17 0 116.17-14.79Q116.21-21.16 117.36-23.16L117.36-23.16Q118.8-25.96 121.54-27.15 124.28-28.34 129.26-28.34L129.26-28.34 139.07-28.34 139.07-23.28 130.02-23.28Q125.81-23.2 124.62-22.6L124.62-22.6Q122.24-21.63 122.16-18.27L122.16-18.27 122.16-16.74ZM143.19-12.41L143.19-28.34 149.18-28.34 149.18-12.41Q149.31-9.39 149.44-8.41L149.44-8.41Q149.74-6.46 151.31-5.76 152.88-5.06 156.83-5.06L156.83-5.06 162.61-5.06 162.61 0 156.19 0Q151.65 0 149.61-0.51L149.61-0.51Q144.93-1.87 143.66-6.46L143.66-6.46Q143.19-8.24 143.19-12.41L143.19-12.41ZM178.59-28.51L178.59-28.51Q182.84-28.51 186.07-27.07L186.07-27.07Q189.85-25.32 191.38-21.25L191.38-21.25Q192.57-18.06 192.57-13.77L192.57-13.77Q192.57-9.43 191.12-6.25L191.12-6.25Q189.29-2.46 185.51-0.93L185.51-0.93Q182.71 0.17 179.05 0.17L179.05 0.17Q174.25 0.17 170.73-1.61L170.73-1.61Q167.75-3.1 166.18-6.29 164.61-9.48 164.61-14.02L164.61-14.02Q164.61-22.14 168.64-25.58L168.64-25.58Q172.04-28.47 178.59-28.51ZM178.63-23.75L178.63-23.75Q174.47-23.75 172.68-21.03L172.68-21.03Q171.24-18.91 171.24-14.19L171.24-14.19Q171.24-9.22 173.02-6.88L173.02-6.88Q174.81-4.59 178.67-4.59L178.67-4.59Q182.41-4.59 184.17-6.93 185.94-9.26 185.94-14.15L185.94-14.15Q185.94-18.61 184.49-20.95L184.49-20.95Q182.84-23.71 178.63-23.75ZM194.48-28.34L200.72-28.34 207.1-7.01 213.05-28.34 219.76-28.34 225.71-7.01 232.08-28.34 238.29-28.34 229.15 0 222.27 0 216.4-20.44 210.54 0 203.66 0 194.48-28.34Z" transform="translate(-2.549999952316284, 28.510000228881836)"></path></g>       </g></g> </g></mask><defs v-gra="od"></defs><defs v-gra="id"><filter id="2b7159f6-a932-402e-985c-1d0771ec3097" filterUnits="userSpaceOnUse"><feColorMatrix type="matrix" values="0 0 0 0 0.99609375  0 0 0 0 0.99609375  0 0 0 0 0.99609375  0 0 0 1 0"></feColorMatrix></filter><linearGradient x1="0" y1="1" x2="1" y2="0" id="cBkGIEvzk7Ox5BcDzLEy8"><stop offset="0%" stop-color="#fdb051"></stop><stop offset="50%" stop-color="#f2203e"></stop><stop offset="100%" stop-color="#5342d6"></stop></linearGradient><filter id="42443b3f1de60f6b6fd3b6a9844b4764" filterUnits="objectBoundingBox"><feColorMatrix type="matrix" values="0 0 0 0 0.99609375  0 0 0 0 0.99609375  0 0 0 0 0.99609375  0 0 0 1 0"></feColorMatrix></filter></defs><mask v-gra="im" id="cc36898a-b95d-478a-b454-bb739ea65687"><g mask="url(#0380fe4c-e0d5-46d8-8bb2-8629ab2dfadc)" filter="url(#2b7159f6-a932-402e-985c-1d0771ec3097)"><g><rect fill="#333333" fill-opacity="0" stroke-width="2" x="0" y="0" width="130" height="130" class="image-rect"></rect> <svg x="0" y="0" width="130" height="130" filtersec="colorsb2345118559" class="image-svg-svg primary" style="overflow: visible;"><svg fill="#000000" xmlns="http://www.w3.org/2000/svg" xmlns:xlink="http://www.w3.org/1999/xlink" version="1.1" x="0px" y="0px" viewBox="11.361000061035156 11.361000061035156 77.27799987792969 77.27799987792969" enable-background="new 0 0 100 100" xml:space="preserve"><path d="M50,11.361L50,11.361C28.66,11.361,11.361,28.66,11.361,50v0c0,21.34,17.299,38.639,38.639,38.639h0  c21.34,0,38.639-17.299,38.639-38.639v0C88.639,28.66,71.34,11.361,50,11.361z M50,82.279c-17.799,0-32.279-14.48-32.279-32.279  c0-17.799,14.48-32.279,32.279-32.279c17.799,0,32.279,14.48,32.279,32.279C82.279,67.799,67.799,82.279,50,82.279z"></path></svg></svg> <!----></g></g></mask></svg>